<?xml version="1.0" encoding="iso-8859-1"?>
<!-- Generator: Adobe Illustrator 19.0.0, SVG Export Plug-In . SVG Version: 6.00 Build 0)  -->
<svg version="1.1" id="Layer_1" xmlns="http://www.w3.org/2000/svg" xmlns:xlink="http://www.w3.org/1999/xlink" x="0px" y="0px"
	 viewBox="0 0 512 512" style="enable-background:new 0 0 512 512;" xml:space="preserve">
<g>
	<g>
		<path d="M0,0v512h512V0H0z M452.459,223.68L218.197,459.179c-17.109,17.088-39.552,25.643-62.016,25.643
			c-22.4,0-44.843-8.533-61.909-25.6c-34.155-34.176-34.155-89.749,0-123.904l194.133-194.133c23.125-23.083,60.672-23.061,83.712,0
			c11.2,11.179,17.365,26.048,17.365,41.856c0,15.808-6.165,30.699-17.365,41.877L278.4,318.635
			c-4.16,4.16-9.621,6.251-15.083,6.251c-5.461,0-10.923-2.091-15.083-6.251c-8.341-8.341-8.341-21.845,0-30.165l93.717-93.717
			c3.136-3.136,4.864-7.296,4.864-11.712c0-4.416-1.728-8.555-4.864-11.669c-6.443-6.443-16.939-6.485-23.381-0.021L124.437,365.483
			c-17.515,17.536-17.515,46.037,0,63.552c17.536,17.536,45.995,17.536,63.552,0l234.261-235.477
			c13.888-13.888,21.525-32.32,21.525-51.904c0-19.584-7.637-37.995-21.483-51.861c-28.565-28.565-75.136-28.629-103.723,0
			l-227.563,228.8c-8.299,8.363-21.803,8.384-30.165,0.085c-8.363-8.32-8.405-21.824-0.085-30.165L288.363,59.669
			c45.291-45.291,118.891-45.269,164.096-0.043c21.909,21.909,33.984,51.051,33.984,82.027
			C486.443,172.629,474.368,201.771,452.459,223.68z"/>
	</g>
</g>
<g>
</g>
<g>
</g>
<g>
</g>
<g>
</g>
<g>
</g>
<g>
</g>
<g>
</g>
<g>
</g>
<g>
</g>
<g>
</g>
<g>
</g>
<g>
</g>
<g>
</g>
<g>
</g>
<g>
</g>
</svg>
